<svg width="160" height="24" viewBox="0 0 160 24" fill="none" xmlns="http://www.w3.org/2000/svg">
<g clip-path="url(#clip0_2094_9165)">
<path d="M32.9414 11.1643C32.9414 6.41079 36.278 3.12793 41.0623 3.12793C45.8466 3.12793 49.1642 6.41079 49.1642 11.1643C49.1642 15.9178 45.8276 19.1812 41.0623 19.1812C36.2971 19.1812 32.9414 15.9202 32.9414 11.1643ZM46.5407 11.1643C46.5407 7.79662 44.2749 5.40776 41.0623 5.40776C37.8497 5.40776 35.584 7.79662 35.584 11.1643C35.584 14.5319 37.8497 16.899 41.0623 16.899C44.2749 16.899 46.5407 14.5319 46.5407 11.1643Z" fill="#011D2D"/>
<path d="M51.5327 18.711V7.88117H53.8629V9.31061H54.0727C54.5545 8.32939 55.6898 7.66797 56.8226 7.66797C57.2853 7.66797 57.7671 7.75277 58.0819 7.92478V10.1198C57.4952 9.88481 56.8226 9.77821 56.4243 9.77821C54.9337 9.77821 53.9058 11.0792 53.9058 13.0199V18.711H51.5351H51.5327Z" fill="#011D2D"/>
<path d="M59.8418 4.51358C59.8418 3.61715 60.4714 2.97754 61.373 2.97754C62.2745 2.97754 62.9256 3.61715 62.9256 4.51358C62.9256 5.41 62.296 6.069 61.373 6.069C60.45 6.069 59.8418 5.42939 59.8418 4.51358ZM60.1972 18.711V7.88123H62.5678V18.711H60.1972Z" fill="#011D2D"/>
<path d="M65.2343 20.3539L67.5835 19.6925C68.0867 21.1413 69.2411 21.9723 70.8581 21.9723C72.914 21.9723 74.2162 20.6301 74.2162 18.4981V17.2189H74.0063C73.1048 18.3067 71.9504 18.9245 70.3954 18.9245C67.2901 18.9245 65.0649 16.6229 65.0649 13.2964C65.0649 9.96991 67.2901 7.51807 70.3954 7.51807C71.991 7.51807 73.1859 8.17948 74.0683 9.28669H74.2782V7.87906H76.6083V18.5393C76.6083 21.9069 74.3617 23.9978 70.8366 23.9978C67.9627 23.9978 65.9045 22.6749 65.2343 20.3515V20.3539ZM74.3211 13.2964C74.3211 11.1425 72.8734 9.58712 70.8796 9.58712C68.8857 9.58712 67.438 11.1425 67.438 13.2964C67.438 15.4502 68.8857 16.8772 70.8796 16.8772C72.8734 16.8772 74.3211 15.363 74.3211 13.2964Z" fill="#011D2D"/>
<path d="M78.6621 15.8981C78.6621 13.9163 80.3197 12.5717 83.5514 12.1889L86.1963 11.8909V11.4644C86.1963 10.207 85.3139 9.3954 83.8042 9.3954C82.4185 9.3954 81.4955 10.098 81.517 11.3142H79.1677C79.1677 8.96899 80.9923 7.47656 83.8256 7.47656C86.659 7.47656 88.5694 9.05379 88.5694 11.5274V18.711H86.1987V17.2403H86.0103C85.2757 18.413 84.0594 19.009 82.4638 19.009C80.1766 19.009 78.6645 17.7927 78.6645 15.8957L78.6621 15.8981ZM86.1963 14.4687V13.6159L83.5943 13.9139C81.7268 14.1271 80.9923 14.8951 80.9923 15.7697C80.9923 16.6443 81.7698 17.2403 83.0481 17.2403C84.9156 17.2403 86.1963 16.0677 86.1963 14.4687Z" fill="#011D2D"/>
<path d="M91.2095 18.711V7.88117H93.5396V9.37359H93.7495C94.3577 8.24458 95.4691 7.47656 96.8333 7.47656C98.1975 7.47656 99.6047 8.30757 100.191 9.52381H100.401C101.114 8.28819 102.333 7.49837 103.886 7.49837C106.321 7.49837 108.083 9.43901 108.083 12.1671V18.711H105.713V12.3778C105.713 10.7788 104.706 9.60618 103.299 9.58438C101.83 9.58438 100.802 10.757 100.802 12.3778V18.711H98.4098V12.3778C98.4098 10.694 97.4868 9.58438 96.0582 9.58438C94.6296 9.58438 93.604 10.694 93.604 12.3778V18.711H91.2119H91.2095Z" fill="#011D2D"/>
<path d="M110.535 4.51358C110.535 3.61715 111.165 2.97754 112.066 2.97754C112.968 2.97754 113.619 3.61715 113.619 4.51358C113.619 5.41 112.989 6.069 112.066 6.069C111.143 6.069 110.535 5.42939 110.535 4.51358ZM110.893 18.711V7.88123H113.264V18.711H110.893Z" fill="#011D2D"/>
<path d="M118.432 18.7111V3.61719H125.189C128.504 3.61719 130.729 5.51422 130.729 8.37067C130.729 10.9073 128.84 12.7196 126.26 12.9109H126.093L131.192 18.7086H128.022L123.278 13.1023H121.075V18.7086H118.43L118.432 18.7111ZM121.075 10.9945H124.998C126.887 10.9945 128.103 9.99393 128.103 8.39248C128.103 6.79102 126.865 5.79284 124.998 5.79284H121.075V10.9945Z" fill="#011D2D"/>
<path d="M132.93 4.51358C132.93 3.61715 133.56 2.97754 134.461 2.97754C135.363 2.97754 136.014 3.61715 136.014 4.51358C136.014 5.41 135.384 6.069 134.461 6.069C133.538 6.069 132.93 5.42939 132.93 4.51358ZM133.286 18.711V7.88123H135.656V18.711H133.286Z" fill="#011D2D"/>
<path d="M138.239 15.0456H140.421C140.443 16.4097 141.492 17.3279 143.255 17.3279C144.681 17.3279 145.564 16.7319 145.564 15.7507C145.564 14.5562 144.283 14.4278 142.814 14.2582C140.841 14.045 138.385 13.5968 138.385 10.9972C138.385 8.80216 140.209 7.45752 142.897 7.45752C145.585 7.45752 147.576 8.88696 147.576 11.145H145.33C145.308 9.99416 144.323 9.26975 142.873 9.26975C141.53 9.26975 140.608 9.88756 140.608 10.847C140.608 12.0196 141.972 12.0826 143.503 12.2764C145.497 12.5114 147.848 13.0226 147.848 15.6247C147.848 17.8415 146.107 19.1208 143.19 19.1208C140.064 19.1208 138.237 17.6065 138.237 15.0481L138.239 15.0456Z" fill="#011D2D"/>
<path d="M150.284 18.711V2.97754H152.654V12.3149H152.864L156.893 7.88123H159.893L155.025 13.0829L160 18.711H156.978L152.864 13.8703H152.654V18.711H150.284Z" fill="#011D2D"/>
<path d="M26.6643 2.92432L23.3181 10.4131L19.3447 5.83165L26.6643 2.92432Z" fill="#2285EA"/>
<path d="M12.3736 10.2847L16.6261 16.1575L10.5396 21.175L12.3736 10.2847Z" fill="#2285EA"/>
<path d="M16.0153 1.87038L0 0L12.3734 10.2847L16.0153 1.87038Z" fill="#2285EA"/>
<path d="M30.3181 4.53304L26.6643 2.92432L25.0854 6.45914L30.3181 4.53304Z" fill="#011D2D"/>
<path d="M23.3183 10.4133L16.0154 1.87061L12.3735 10.2849L15.1854 14.1686L23.3183 10.4133Z" fill="#011D2D"/>
</g>
<defs>
<clipPath id="clip0_2094_9165">
<rect width="160" height="24" fill="white"/>
</clipPath>
</defs>
</svg>
